<svg id="Capa_1" enable-background="new 0 0 511.88 511.88" height="512" viewBox="0 0 511.88 511.88" width="512" xmlns="http://www.w3.org/2000/svg"><g><path d="m489.91 56.54v323.51c0 7.57-6.14 13.71-13.71 13.71h-440.52c-7.57 0-13.71-6.14-13.71-13.71v-323.51c0-7.57 6.14-13.71 13.71-13.71h440.52c7.57 0 13.71 6.14 13.71 13.71z" fill="#a1d7f3"/><path d="m489.91 56.54v323.51c0 7.57-6.14 13.71-13.71 13.71h-220.26v-350.93h220.26c7.57 0 13.71 6.14 13.71 13.71z" fill="#64bfed"/><path d="m383.88 470.53c0 8.29-6.71 15-15 15h-225.88c-8.29 0-15-6.71-15-15 0-8.28 6.71-15 15-15h52.76v-60.29c0-8.29 6.72-15 15-15h90.36c8.28 0 15 6.71 15 15v60.29h52.76c8.29 0 15 6.72 15 15z" fill="#d5e8fe"/><path d="m383.88 470.53c0 8.29-6.71 15-15 15h-112.94v-105.29h45.18c8.28 0 15 6.71 15 15v60.29h52.76c8.29 0 15 6.72 15 15z" fill="#b5dbff"/><path d="m414 304.82v60.23c0 8.284-6.716 15-15 15h-92.44c38.473-43.16 8.125-112.81-50.62-112.81s-89.093 69.65-50.62 112.81h-92.44c-8.28 0-15-6.71-15-15v-60.23c0-8.284 6.716-15 15-15h19.904c2.022 0 3.852-1.214 4.614-3.086.207-.509.418-1.016.632-1.523.787-1.864.352-4.019-1.079-5.449l-14.071-14.072c-5.828-5.828-5.874-15.336 0-21.21l42.6-42.59c5.816-5.837 15.314-5.897 21.21 0l14.072 14.063c1.431 1.43 3.585 1.864 5.448 1.078.507-.214 1.015-.425 1.524-.632 1.872-.762 3.086-2.592 3.086-4.614v-19.905c0-8.284 6.716-15 15-15h60.24c8.284 0 15 6.716 15 15v19.903c0 2.023 1.215 3.854 3.089 4.615.512.208 1.022.419 1.532.634 1.863.785 4.016.35 5.446-1.08l14.063-14.063c5.895-5.895 15.406-5.835 21.22 0l42.59 42.591c5.86 5.85 5.86 15.35 0 21.21l-14.072 14.072c-1.43 1.43-1.866 3.585-1.079 5.449.214.506.424 1.014.632 1.523.762 1.872 2.592 3.086 4.614 3.086h19.905c8.29 0 15 6.72 15 15z" fill="#64bfed"/><path d="m414 304.82v54.058c0 11.693-9.479 21.172-21.172 21.172h-73.948c-4.858 0-7.788-5.34-5.214-9.46 26.96-43.147-3.11-103.35-57.726-103.35v-90.36h29.787c8.468 0 15.333 6.865 15.333 15.333v18.787c0 2.492 1.501 4.738 3.804 5.691l.095.039c2.308.955 4.964.427 6.73-1.339l13.501-13.501c5.895-5.895 15.406-5.835 21.22 0l42.59 42.59c5.86 5.85 5.86 15.35 0 21.21l-13.51 13.51c-1.767 1.767-2.295 4.425-1.338 6.734l.036.087c.954 2.3 3.199 3.8 5.69 3.8h19.122c8.29-.001 15 6.719 15 14.999z" fill="#0099e3"/><path d="m496.88 26.35h-481.88c-8.29 0-15 6.72-15 15v353.89c0 8.28 6.71 15 15 15h481.88c8.29 0 15-6.72 15-15v-353.89c0-8.28-6.71-15-15-15zm-15 323.71h-451.88v-293.71h451.88z" fill="#edf5ff"/><path d="m511.88 41.35v353.89c0 8.28-6.71 15-15 15h-240.94v-60.18h225.94v-293.71h-225.94v-30h240.94c8.29 0 15 6.72 15 15z" fill="#d5e8fe"/><path d="m225.823 116.59h-150.589c-8.284 0-15-6.716-15-15s6.716-15 15-15h150.589c8.284 0 15 6.716 15 15s-6.716 15-15 15z" fill="#fabe2c"/><path d="m112.881 176.825h-37.647c-8.284 0-15-6.716-15-15s6.716-15 15-15h37.647c8.284 0 15 6.716 15 15s-6.715 15-15 15z" fill="#fabe2c"/><g fill="#ff9100"><path d="m436.646 176.825h-37.647c-8.284 0-15-6.716-15-15s6.716-15 15-15h37.647c8.284 0 15 6.716 15 15s-6.716 15-15 15z"/><path d="m436.646 116.59h-150.589c-8.284 0-15-6.716-15-15s6.716-15 15-15h150.589c8.284 0 15 6.716 15 15s-6.716 15-15 15z"/></g></g></svg>